<?xml version="1.0" encoding="UTF-8" standalone="no"?>
<svg width="98px" height="96px" viewBox="0 0 98 96" version="1.1" xmlns="http://www.w3.org/2000/svg">
    <g stroke="none" stroke-width="1" fill="none" fill-rule="evenodd">
        <g transform="translate(-1.000000, -4.000000)" fill="#FFFFFF">
            <path d="M50,4 C23.8,4 2.8,25.1 2.8,51.2 C2.8,72.2 16.2,90 35,96 C37.4,96.4 38.2,94.9 38.2,93.6 C38.2,92.4 38.1,88.8 38.1,85 C25.8,87.6 23,79.1 23,79.1 C20.8,73.9 17.7,72.4 17.7,72.4 C13.5,69.6 18,69.7 18,69.7 C22.6,70 25.2,74.4 25.2,74.4 C29.3,81.5 36.3,79.4 38.3,78.2 C38.7,75.3 39.9,73.3 41.2,72.2 C31.3,71.1 20.9,67.1 20.9,48.9 C20.9,43.8 22.9,39.6 25.3,36.4 C24.8,35.2 23.1,30.4 25.7,23.9 C25.7,23.9 29.5,22.6 38.1,28.6 C41.8,27.5 45.8,27 49.8,27 C53.8,27 57.8,27.5 61.5,28.6 C70.1,22.6 73.9,23.9 73.9,23.9 C76.5,30.4 74.8,35.2 74.3,36.4 C76.7,39.6 78.7,43.8 78.7,48.9 C78.7,67.2 68.3,71.1 58.3,72.2 C60,73.5 61.5,76.2 61.5,80.4 C61.5,86.5 61.4,91.9 61.4,93.6 C61.4,94.9 62.2,96.4 64.6,96 C83.4,90 96.8,72.2 96.8,51.2 C96.8,25.1 75.8,4 49.6,4 L50,4 Z"/>
        </g>
    </g>
</svg>